<?xml version="1.0" encoding="utf-8"?>
<!-- Generator: Adobe Illustrator 18.0.0, SVG Export Plug-In . SVG Version: 6.00 Build 0)  -->
<!DOCTYPE svg PUBLIC "-//W3C//DTD SVG 1.1//EN" "http://www.w3.org/Graphics/SVG/1.1/DTD/svg11.dtd">
<svg version="1.1" id="Layer_1" xmlns="http://www.w3.org/2000/svg" xmlns:xlink="http://www.w3.org/1999/xlink" x="0px" y="0px"
	 viewBox="0 0 512 512" enable-background="new 0 0 512 512" xml:space="preserve">
<pattern  width="88.6" height="98.2" patternUnits="userSpaceOnUse" id="New_Pattern_Swatch_13" viewBox="0 -98.2 88.6 98.2" overflow="visible">
	<g>
		<polygon fill="none" points="0,0 88.6,0 88.6,-98.2 0,-98.2 		"/>
		<polygon fill="#014E6A" points="88.6,0 0,0 0,-98.2 88.6,-98.2 		"/>
	</g>
</pattern>
<pattern  width="88.6" height="98.2" patternUnits="userSpaceOnUse" id="New_Pattern_Swatch_15" viewBox="0 -98.2 88.6 98.2" overflow="visible">
	<g>
		<polygon fill="none" points="0,0 88.6,0 88.6,-98.2 0,-98.2 		"/>
		<polygon fill="#01CEF0" points="88.6,0 0,0 0,-98.2 88.6,-98.2 		"/>
	</g>
</pattern>
<g>
	<g>
		<path fill="url(#New_Pattern_Swatch_13)" d="M256,36.7C134.9,36.7,36.7,134.9,36.7,256S134.9,475.3,256,475.3
			S475.3,377.1,475.3,256S377.1,36.7,256,36.7z M256,409.5c-84.8,0-153.5-68.7-153.5-153.5S171.2,102.5,256,102.5
			S409.5,171.2,409.5,256S340.8,409.5,256,409.5z"/>
		<g>
			<path d="M256,402c-44.7-0.2-86.5-20.7-114.6-55.4c-28.1-34.8-37.7-82.3-27.2-125.5c10.3-42.7,40.4-78.4,79.8-97.3
				c40.3-19.4,89.2-18,128.8,2.4c39.1,20.1,67.1,57.4,76.3,100.3c9.3,43.6-3,90.4-31.8,124.2C339.6,383.1,298.6,401.8,256,402
				c-9.7,0-9.7,15,0,15c45.7-0.2,89.6-19.7,120.1-53.8c30.7-34.3,45.2-81,39.6-126.6c-5.5-45.4-30.4-86-67.5-112.4
				c-37.6-26.9-86.5-35.2-131.2-24.4c-43.6,10.5-81.3,40.4-102.7,79.6c-22.2,40.6-25.3,90.3-9.1,133.5
				C128.8,375,189.7,416.7,256,417C265.7,417,265.7,402,256,402z"/>
			<path d="M256,29.2c-45.6,0.1-90.5,13.9-128.1,39.7c-36.9,25.3-65.3,61.2-82.3,102.5C28,214.2,24.9,262.4,35.1,307.3
				c9.9,43.5,33.4,83.5,65.8,114c32.6,30.7,74.4,51.3,118.6,58.4c45.9,7.4,93.1,0.5,135.1-19.5c82.8-39.4,133.8-128.5,127.7-219.7
				c-6.1-91.4-68.8-171.2-155.4-200.1C304.1,32.9,279.9,29.3,256,29.2c-9.7,0-9.7,15,0,15c44.9,0.1,88.4,14.4,124.9,40.7
				c35.1,25.3,61.8,62.1,75.7,103c14.7,43.1,14.7,90.3,0.8,133.6c-13.2,41.2-39.8,78.1-74.5,104c-35.8,26.8-79.5,41.5-124.1,42.2
				c-44.9,0.7-88.9-13.3-125.5-39.1c-35.4-24.9-62.6-61.3-77-102c-15.2-42.9-15.8-90.1-2.5-133.6C80,107.2,161,46.8,250.4,44.3
				c1.9-0.1,3.8-0.1,5.6-0.1C265.7,44.2,265.7,29.2,256,29.2z"/>
		</g>
	</g>
	<g>
		<path fill="url(#New_Pattern_Swatch_15)" d="M409.5,256c0,84.8-68.7,153.5-153.5,153.5S102.5,340.8,102.5,256
			S171.2,102.5,256,102.5S409.5,171.2,409.5,256z"/>
		<g>
			<path d="M402,256c-0.2,44.7-20.7,86.5-55.4,114.6c-34.8,28.1-82.3,37.7-125.5,27.2c-42.7-10.3-78.4-40.4-97.3-79.8
				c-19.4-40.3-18-89.2,2.4-128.8c20.1-39.1,57.4-67.1,100.3-76.3c43.6-9.3,90.4,3,124.2,31.8C383.1,172.4,401.8,213.4,402,256
				c0,9.7,15,9.7,15,0c-0.2-45.7-19.7-89.6-53.8-120.1c-34.3-30.7-81-45.2-126.6-39.6c-45.4,5.5-86,30.4-112.4,67.5
				c-26.9,37.6-35.2,86.5-24.4,131.2c10.5,43.6,40.4,81.3,79.6,102.7c40.6,22.2,90.3,25.3,133.5,9.1C375,383.2,416.7,322.3,417,256
				C417,246.3,402,246.3,402,256z"/>
		</g>
	</g>
	<g>
		<g>
			<path d="M248.5,13c0,15.8,0,31.7,0,47.5c0,9.7,15,9.7,15,0c0-15.8,0-31.7,0-47.5C263.5,3.3,248.5,3.3,248.5,13L248.5,13z"/>
		</g>
	</g>
	<g>
		<g>
			<path d="M248.5,451.5c0,15.8,0,31.7,0,47.5c0,9.7,15,9.7,15,0c0-15.8,0-31.7,0-47.5C263.5,441.8,248.5,441.8,248.5,451.5
				L248.5,451.5z"/>
		</g>
	</g>
	<g>
		<g>
			<path d="M13,263.5c15.8,0,31.7,0,47.5,0c9.7,0,9.7-15,0-15c-15.8,0-31.7,0-47.5,0C3.3,248.5,3.3,263.5,13,263.5L13,263.5z"/>
		</g>
	</g>
	<g>
		<g>
			<path d="M499,248.5c-15.8,0-31.7,0-47.5,0c-9.7,0-9.7,15,0,15c15.8,0,31.7,0,47.5,0C508.7,263.5,508.7,248.5,499,248.5L499,248.5
				z"/>
		</g>
	</g>
</g>
<g>
	<g>
		<g>
			<path d="M248.5,161.5c0,49.7,0,99.5,0,149.2c0,13.3,0,26.5,0,39.8c0,9.7,15,9.7,15,0c0-49.7,0-99.5,0-149.2c0-13.3,0-26.5,0-39.8
				C263.5,151.8,248.5,151.8,248.5,161.5L248.5,161.5z"/>
		</g>
	</g>
	<g>
		<g>
			<path d="M222,169c11.3,0,22.7,0,34,0c9.7,0,9.7-15,0-15c-11.3,0-22.7,0-34,0C212.3,154,212.3,169,222,169L222,169z"/>
		</g>
	</g>
</g>
</svg>
